<svg xmlns="http://www.w3.org/2000/svg" viewBox="0 0 128 128" role="img" aria-labelledby="title">
  <title>Hugging Face</title>
  <circle cx="64" cy="64" r="46" fill="#ffcc4d"/>
  <circle cx="48" cy="56" r="6" fill="#2b2b2b"/>
  <circle cx="80" cy="56" r="6" fill="#2b2b2b"/>
  <path d="M43 78c6 9 14 13 21 13s15-4 21-13" fill="none" stroke="#2b2b2b" stroke-linecap="round" stroke-width="6"/>
  <path d="M26 76c-3-10 0-20 8-25 5-3 11-2 15 3 4 5 5 12 3 18" fill="none" stroke="#ffcc4d" stroke-linecap="round" stroke-width="14"/>
  <path d="M102 76c3-10 0-20-8-25-5-3-11-2-15 3-4 5-5 12-3 18" fill="none" stroke="#ffcc4d" stroke-linecap="round" stroke-width="14"/>
  <path d="M24 76c-4-9-2-19 5-25" fill="none" stroke="#2b2b2b" stroke-linecap="round" stroke-width="6"/>
  <path d="M104 76c4-9 2-19-5-25" fill="none" stroke="#2b2b2b" stroke-linecap="round" stroke-width="6"/>
</svg>
